<svg width="20" height="24" viewBox="0 0 20 24" fill="none" xmlns="http://www.w3.org/2000/svg">
<path d="M6 11H7V20L6 19.4V11Z" fill="#C4C4C4"/>
<path d="M8.5 6.5L19 4.40188L19 5.40188L9 7.49996L8.5 6.5Z" fill="#C4C4C4"/>
<circle cx="5" cy="8" r="5" fill="#B3B3B3"/>
<path d="M5.52393 7.50933H7.9623V8.56035H5.52393V11.323H4.40684V8.56035H1.96846V7.50933H4.40684V4.95684H5.52393V7.50933Z" fill="#1F1919"/>
<path fill-rule="evenodd" clip-rule="evenodd" d="M3.5 24C5.433 24 7 22.433 7 20.5C7 18.567 5.433 17 3.5 17C1.567 17 0 18.567 0 20.5C0 22.433 1.567 24 3.5 24ZM3.5 22.8333C4.78866 22.8333 5.83333 21.7887 5.83333 20.5C5.83333 19.2113 4.78866 18.1667 3.5 18.1667C2.21134 18.1667 1.16667 19.2113 1.16667 20.5C1.16667 21.7887 2.21134 22.8333 3.5 22.8333Z" fill="#C4C4C4"/>
<path fill-rule="evenodd" clip-rule="evenodd" d="M15.5 22C17.433 22 19 20.433 19 18.5C19 16.567 17.433 15 15.5 15C13.567 15 12 16.567 12 18.5C12 20.433 13.567 22 15.5 22ZM15.5 20.8333C16.7887 20.8333 17.8333 19.7887 17.8333 18.5C17.8333 17.2113 16.7887 16.1667 15.5 16.1667C14.2113 16.1667 13.1667 17.2113 13.1667 18.5C13.1667 19.7887 14.2113 20.8333 15.5 20.8333Z" fill="#C4C4C4"/>
<path d="M18 5.46429L19 5V18L18 17.0715V5.46429Z" fill="#C4C4C4"/>
</svg>
