<svg width="29" height="29" viewBox="0 0 29 29" fill="none" xmlns="http://www.w3.org/2000/svg">
<path fill-rule="evenodd" clip-rule="evenodd" d="M13.7026 16.3295V23.3628C13.7026 24.0637 14.5359 24.4303 15.0525 23.9567L19.8859 19.5262C20.2342 19.2068 20.2342 18.6577 19.8859 18.3383L15.7004 14.5017L19.8859 10.6651C20.2342 10.3457 20.2342 9.79657 19.8859 9.47718L15.0525 5.04662C14.5359 4.57304 13.7026 4.93963 13.7026 5.64056V12.6738L9.77615 9.0744C9.44821 8.77389 8.93864 8.79592 8.63803 9.12396C8.33737 9.452 8.35955 9.96138 8.68749 10.2623L13.3124 14.5017L8.68749 18.7411C8.35955 19.042 8.33737 19.5513 8.63803 19.8794C8.93864 20.2074 9.44821 20.2295 9.77615 19.9289L13.7026 16.3295ZM15.3138 12.6707L18.1494 10.0711L15.3138 7.47194V12.6707ZM18.1494 18.9322L15.3138 21.5318V16.3331L18.1494 18.9322Z" fill="#1DB954"/>
</svg>
