<svg width="21" height="23" viewBox="0 0 21 23" fill="none" xmlns="http://www.w3.org/2000/svg">
<path d="M10.5 23C11.2625 23 11.9938 22.6971 12.5329 22.1579C13.0721 21.6188 13.375 20.8875 13.375 20.125H7.625C7.625 20.8875 7.9279 21.6188 8.46707 22.1579C9.00623 22.6971 9.7375 23 10.5 23ZM11.9303 1.57981C11.9504 1.37993 11.9283 1.17807 11.8656 0.987235C11.8028 0.796403 11.7008 0.62084 11.566 0.47187C11.4313 0.322899 11.2668 0.203829 11.0831 0.122337C10.8995 0.0408448 10.7009 -0.00125885 10.5 -0.00125885C10.2991 -0.00125885 10.1005 0.0408448 9.91685 0.122337C9.73324 0.203829 9.56875 0.322899 9.43398 0.47187C9.29922 0.62084 9.19717 0.796403 9.13442 0.987235C9.07168 1.17807 9.04962 1.37993 9.06969 1.57981C7.44491 1.91029 5.98427 2.79214 4.9351 4.07603C3.88593 5.35992 3.31271 6.96695 3.3125 8.625C3.3125 10.2034 2.59375 17.25 0.4375 18.6875H20.5625C18.4063 17.25 17.6875 10.2034 17.6875 8.625C17.6875 5.14625 15.215 2.2425 11.9303 1.57981Z" fill="#1ED760"/>
</svg>
