<svg width="20" height="20" viewBox="0 0 20 20" fill="none" xmlns="http://www.w3.org/2000/svg">
<path d="M3.76083 6.20067C5.28428 2.72704 9.06431 0.769435 12.7325 1.74815C16.796 2.83234 19.1834 7.10925 18.0651 11.3009C16.9467 15.4925 12.7459 18.0116 8.68246 16.9275C6.70434 16.3997 5.06724 15.0971 4.07298 13.3164C3.92684 13.0546 3.59992 12.9674 3.34279 13.1216C3.08565 13.2758 2.99568 13.613 3.14225 13.8756C4.27511 15.9045 6.14347 17.3911 8.39825 17.9927C13.032 19.229 17.8223 16.3564 19.0977 11.5764C20.3731 6.79647 17.6505 1.91929 13.0167 0.682938C8.77709 -0.448244 4.40646 1.86024 2.71676 5.9221L1.00018 5.4641L2.17398 9.77094L5.33728 6.62129L3.76083 6.20067Z" fill="white"/>
<rect x="9.77783" y="3.5502" width="0.887527" height="5.76893" rx="0.443764" fill="white"/>
<rect x="9.77783" y="9.03775" width="0.887528" height="5.54705" rx="0.443764" transform="rotate(-43.0915 9.77783 9.03775)" fill="white"/>
</svg>
