<svg width="22" height="25" viewBox="0 0 22 25" fill="none" xmlns="http://www.w3.org/2000/svg">
<path fill-rule="evenodd" clip-rule="evenodd" d="M16 23.314C17.6568 23.314 19 21.9708 19 20.314C19 18.6571 17.6568 17.314 16 17.314C14.3431 17.314 13 18.6571 13 20.314C13 21.9708 14.3431 23.314 16 23.314ZM15.9998 22.114C16.9939 22.114 17.7998 21.3081 17.7998 20.314C17.7998 19.3199 16.9939 18.514 15.9998 18.514C15.0057 18.514 14.1998 19.3199 14.1998 20.314C14.1998 21.3081 15.0057 22.114 15.9998 22.114Z" fill="#C4C4C4"/>
<path d="M18 11.5H19V20.875L18 21.5V11.5Z" fill="#C4C4C4"/>
<path d="M18.5 12.4999L19.0001 11.4999L21.6512 14.5874L21.0011 15.2357L18.5 12.4999Z" fill="#C4C4C4"/>
<path d="M16 15.7195C14.3333 13.9634 12.6667 13.378 13.7778 11.622C15.4444 8.69512 16 8.04844 16 6.35366C16 2.75957 13.3244 1 10.4444 1C7.56448 1 4.88889 2.75957 4.88889 6.35366C4.88889 8.21974 6.65837 10.4353 7.66667 11.622C11 15.1341 1.55556 17.4756 1 19.8171L1 24.5" stroke="#C4C4C4" stroke-width="0.75"/>
</svg>
