<svg width="53" height="53" viewBox="0 0 53 53" fill="none" xmlns="http://www.w3.org/2000/svg">
<g clip-path="url(#clip0_102_37)">
<path d="M26.4744 0.0873165C11.8973 0.0873165 0.0797119 11.9046 0.0797119 26.4817C0.0797119 41.0593 11.8973 52.8757 26.4744 52.8757C41.053 52.8757 52.8693 41.0593 52.8693 26.4817C52.8693 11.9055 41.0533 0.0873165 26.4744 0.0873165ZM38.5788 38.1555C38.106 38.9309 37.0911 39.1767 36.3157 38.7008C30.1186 34.9154 22.3171 34.0581 13.1294 36.1572C12.244 36.359 11.3615 35.8042 11.1598 34.9186C10.9571 34.0329 11.5096 33.1504 12.3972 32.9487C22.4516 30.6516 31.0761 31.6406 38.0335 35.8925C38.8089 36.3684 39.0547 37.3802 38.5788 38.1555ZM41.8094 30.9686C41.2137 31.9369 39.9467 32.2426 38.9791 31.6469C31.8842 27.286 21.0692 26.0231 12.6774 28.5704C11.5891 28.8991 10.4396 28.2858 10.1093 27.1993C9.78146 26.111 10.3951 24.9637 11.4816 24.6328C21.0673 21.7242 32.9842 23.1331 41.1318 28.1399C42.0994 28.7356 42.4051 30.0023 41.8094 30.9686ZM42.0868 23.4849C33.5799 18.4321 19.5447 17.9675 11.4226 20.4326C10.1184 20.8282 8.73914 20.0919 8.3439 18.7876C7.94866 17.4828 8.6843 16.1045 9.98949 15.708C19.313 12.8776 34.8123 13.4244 44.6064 19.2387C45.7821 19.9349 46.1666 21.45 45.47 22.6216C44.7766 23.7947 43.2561 24.1814 42.0868 23.4849Z" fill="#F5F5F5"/>
</g>
<defs>
<clipPath id="clip0_102_37">
<rect width="53" height="53" fill="white"/>
</clipPath>
</defs>
</svg>
